<svg width="18" height="11" viewBox="0 0 18 11" fill="none" xmlns="http://www.w3.org/2000/svg">
<path d="M1.26096 9.15527e-05C1.09575 9.15527e-05 0.939048 0.0348332 0.794649 0.0920021L8.11048 6.31768C8.43063 6.59048 8.78772 6.59063 9.10876 6.31768L16.431 0.0856226C16.2888 0.030357 16.1335 0.000309718 15.9713 0.000309718L1.26096 9.15527e-05ZM0.013193 1.07707C0.00469093 1.13658 0 1.19889 0 1.26089V9.66687C0 10.3654 0.5623 10.9278 1.26097 10.9278H15.9714C16.6699 10.9278 17.2324 10.3655 17.2324 9.66687V1.26089C17.2324 1.19889 17.2279 1.13658 17.2192 1.07707L9.92966 7.27648C9.17398 7.91913 8.04525 7.92014 7.28958 7.27648L0.013193 1.07707Z" fill="#7587A0"/>
</svg>
