<svg width="32" height="33" viewBox="0 0 32 33" fill="none" xmlns="http://www.w3.org/2000/svg">
<path d="M16.0102 9.69379C11.9778 9.69379 8.70825 12.9832 8.70825 17.0401C8.70825 20.7231 11.4052 23.7645 14.9185 24.2957V18.9868H13.1119V17.0559H14.9185V15.7709C14.9185 13.6435 15.9487 12.71 17.7062 12.71C18.5476 12.71 18.9933 12.773 19.2036 12.8013V14.4867H18.005C17.2591 14.4867 16.9984 15.1987 16.9984 16.0006V17.0559H19.1848L18.8885 18.9868H16.9984V24.3109C20.5623 23.8249 23.3121 20.7593 23.3121 17.0401C23.3121 12.9832 20.0428 9.69379 16.0102 9.69379Z" fill="#00B2FF"/>
<rect x="0.511475" y="1.49652" width="30.0606" height="30.0606" rx="3.5" stroke="#D9D9D9"/>
</svg>
