<svg width="16" height="15" viewBox="0 0 16 15" fill="none" xmlns="http://www.w3.org/2000/svg">
<path fill-rule="evenodd" clip-rule="evenodd" d="M15.7901 11.9305L11.7452 8.99472C11.4883 8.80737 11.2316 8.86976 11.039 9.05712L10.718 9.36961L9.69079 10.3689C9.36976 10.6812 8.85616 10.6812 8.47079 10.3689L4.68256 7.05842C4.48998 6.93345 4.42567 6.68371 4.42567 6.43378C4.42567 6.18386 4.4898 5.9965 4.68256 5.80915L5.77411 4.74723C5.96669 4.55987 5.96669 4.24756 5.83824 4.06022L3.07744 0.187446C3.01331 0.125054 2.88486 9.15527e-05 2.69228 9.15527e-05C2.56383 9.15527e-05 2.37125 9.17336e-05 2.2428 0.125054L0.637663 1.37432C-0.0043933 1.87398 -0.13285 2.68596 0.124064 3.43557C2.2428 8.93234 6.80145 13.0549 12.58 14.9288C13.222 15.1162 13.9925 14.9288 14.442 14.4292C14.763 14.0545 15.5336 13.1175 15.662 12.9926C15.7261 12.9302 15.7905 12.8052 15.8546 12.7426C15.983 12.6177 15.983 12.4927 15.983 12.3053C16.047 12.118 15.9186 11.993 15.7901 11.9305L15.7901 11.9305Z" fill="#7587A0"/>
</svg>
