<svg width="53" height="53" viewBox="0 0 53 53" fill="none" xmlns="http://www.w3.org/2000/svg">
<path d="M51.4489 50.8947H44.0676C45.4637 49.9667 46.3949 48.3464 46.3949 46.4986C46.3949 43.6128 44.1251 41.2675 41.3325 41.2675C38.532 41.2675 36.2702 43.6129 36.2702 46.4986C36.2702 48.3464 37.1927 49.9663 38.5892 50.8947H16.4287C17.8249 49.9667 18.756 48.3464 18.756 46.4986C18.756 43.6128 16.4863 41.2675 13.6937 41.2675C10.8931 41.2675 8.63137 43.6129 8.63137 46.4986C8.63137 48.3464 9.55385 49.9663 10.9504 50.8947H1.08652C0.637308 50.8947 0.27832 51.2742 0.27832 51.7298C0.27832 52.1854 0.637693 52.565 1.08652 52.565H51.449C51.8982 52.565 52.2572 52.1854 52.2572 51.7298C52.2576 51.2742 51.8982 50.8947 51.449 50.8947H51.4489ZM41.3243 44.3893C42.4512 44.3893 43.3655 45.3344 43.3655 46.4986C43.3655 47.6632 42.4509 48.6079 41.3243 48.6079C40.1973 48.6079 39.2831 47.6628 39.2831 46.4986C39.2748 45.334 40.1977 44.3893 41.3243 44.3893ZM13.6852 44.3893C14.8122 44.3893 15.7264 45.3344 15.7264 46.4986C15.7264 47.6632 14.8118 48.6079 13.6852 48.6079C12.5582 48.6079 11.644 47.6628 11.644 46.4986C11.644 45.334 12.5582 44.3893 13.6852 44.3893Z" fill="#596B86"/>
<path d="M2.38463 15.1451L9.26787 15.2294C10.452 15.2461 11.4233 14.2676 11.4316 13.044C11.4477 11.8204 10.4926 10.8167 9.31666 10.8081H9.28396C9.29223 10.7658 9.29223 10.7405 9.29223 10.6986C9.3084 9.07022 8.04313 7.7371 6.46693 7.71184C4.93173 7.69513 3.66636 8.92692 3.58447 10.4962C3.24164 10.2938 2.85783 10.1839 2.43304 10.1757C1.11061 10.1501 0.0167329 11.2556 0.000180852 12.6308C-0.0159834 14.0063 1.05345 15.1285 2.38454 15.1452L2.38463 15.1451Z" fill="#596B86"/>
<path d="M40.4023 2.5649C40.8515 2.5649 41.2105 2.18539 41.2105 1.72975V0.835155C41.2105 0.370959 40.8512 0 40.4023 0C39.9531 0 39.5941 0.379511 39.5941 0.835155V1.7212C39.5859 2.18501 39.9531 2.56491 40.4023 2.56491V2.5649Z" fill="#596B86"/>
<path d="M37.2092 2.83489C37.3562 3.10486 37.634 3.25675 37.9114 3.25675C38.0501 3.25675 38.1892 3.22295 38.3197 3.1472C38.7117 2.91957 38.8422 2.40489 38.6136 1.99974L38.1809 1.22323C37.9607 0.818087 37.4626 0.683293 37.0705 0.919468C36.6784 1.1471 36.548 1.66178 36.7766 2.06693L37.2092 2.83489Z" fill="#596B86"/>
<path d="M34.9393 4.58144L35.6825 5.02038C35.8133 5.09613 35.952 5.12993 36.0907 5.12993C36.3685 5.12993 36.646 4.97805 36.7929 4.70808C37.0132 4.30293 36.8828 3.79678 36.499 3.56061L35.7558 3.11351C35.3637 2.87733 34.8739 3.02067 34.6454 3.41728C34.4168 3.83058 34.5476 4.34527 34.9393 4.58145L34.9393 4.58144Z" fill="#596B86"/>
<path d="M34.5553 7.71181H35.4127C35.8619 7.71181 36.2209 7.3323 36.2209 6.87666C36.2209 6.41246 35.8616 6.0415 35.4127 6.0415H34.5553C34.1061 6.0415 33.7471 6.42101 33.7471 6.87666C33.7471 7.33192 34.1064 7.71181 34.5553 7.71181Z" fill="#596B86"/>
<path d="M42.4838 3.13873C42.6146 3.21448 42.7533 3.24827 42.892 3.24827C43.1698 3.24827 43.4472 3.0964 43.5942 2.82642L44.0269 2.05846C44.2472 1.65331 44.1167 1.14716 43.7329 0.910995C43.3408 0.67482 42.851 0.818157 42.6225 1.21476L42.1898 1.98272C41.9609 2.39602 42.0917 2.90256 42.4838 3.13874L42.4838 3.13873Z" fill="#596B86"/>
<path d="M41.0633 8.18413C40.7039 7.97321 40.2957 7.86366 39.8547 7.86366C38.4585 7.86366 37.3315 9.03638 37.3315 10.4709C37.3315 11.9055 38.4664 13.0782 39.8547 13.0782H47.0729C48.3141 13.0782 49.3182 12.0402 49.3182 10.758C49.3182 9.47542 48.3058 8.43784 47.0729 8.43784H47.0402C47.0485 8.3955 47.0485 8.36209 47.0485 8.31975C47.0485 6.60706 45.7012 5.22302 44.0517 5.22302C42.4432 5.23118 41.1286 6.53864 41.0632 8.18411L41.0633 8.18413Z" fill="#596B86"/>
<path d="M37.1853 6.86774C37.1853 6.97728 37.2015 7.07867 37.2098 7.18821C37.9281 6.57214 38.8428 6.18404 39.8471 6.18404H39.9125C40.3697 5.23896 41.1211 4.47951 42.0436 4.02386C41.5617 3.7201 41.0065 3.54297 40.4024 3.54297C38.6303 3.54336 37.1853 5.03689 37.1853 6.86772L37.1853 6.86774Z" fill="#596B86"/>
<path d="M2.97251 35.8082C2.97251 35.1416 3.07852 34.4918 3.2909 33.8846L4.7036 29.6828C4.32807 29.4466 3.88712 29.3114 3.42178 29.3114C2.0418 29.3114 0.923096 30.4674 0.923096 31.8934V39.2257C0.923096 40.4913 1.81325 41.5459 2.98084 41.7568L2.98047 35.8082L2.97251 35.8082Z" fill="#596B86"/>
<path d="M7.4964 26.4686L4.81843 34.4504C4.67145 34.8894 4.59814 35.3532 4.59814 35.8088V41.9851H8.63992C9.86468 40.5171 11.6772 39.5887 13.6941 39.5887C15.7108 39.5887 17.5235 40.5252 18.7482 41.9851H36.279C37.5037 40.5171 39.3163 39.5887 41.3331 39.5887C43.35 39.5887 45.1625 40.5252 46.3873 41.9851H49.1961V39.4707C49.1961 39.1502 49.1634 38.8464 49.1063 38.5427C48.7142 36.5177 47.0485 34.9566 44.9912 34.805L38.9981 34.3661L34.2296 25.7597C33.5113 24.4771 32.1884 23.6757 30.7513 23.6757H11.2853C9.57044 23.6842 8.05997 24.7979 7.49653 26.4686L7.4964 26.4686ZM21.8428 27.6246C21.8428 27.0932 22.2593 26.6543 22.7818 26.6543H30.7346C31.1428 26.6543 31.5184 26.8819 31.7225 27.2447L35.209 33.5391C35.5684 34.189 35.1192 34.9904 34.3926 34.9904H22.7821C22.2678 34.9904 21.843 34.56 21.843 34.02L21.8428 27.6246ZM19.32 27.6246V34.0285C19.32 34.5599 18.9035 34.9988 18.381 34.9988H8.99909C8.35404 34.9988 7.90483 34.3408 8.11721 33.7162L10.2156 27.4471C10.3708 26.9747 10.8035 26.6624 11.285 26.6624H18.3806C18.9035 26.6543 19.32 27.0847 19.32 27.6246H19.32Z" fill="#596B86"/>
<path d="M48.0113 46.4992C48.0113 47.0391 47.9459 47.5623 47.8316 48.0685H49.8078C50.3547 48.0685 50.804 47.6128 50.804 47.0391V44.6936C50.804 44.1284 50.363 43.6642 49.8078 43.6642H47.4155C47.7907 44.5331 48.0113 45.4864 48.0113 46.4991L48.0113 46.4992Z" fill="#596B86"/>
<path d="M3.9608 43.6642C3.41385 43.6642 2.9646 44.1198 2.9646 44.6936V47.0391C2.9646 47.6042 3.40554 48.0685 3.9608 48.0685H7.17787C7.06359 47.5623 6.99818 47.0391 6.99818 46.4992C6.99818 45.4865 7.21057 44.5332 7.59437 43.6643L3.9608 43.6642Z" fill="#596B86"/>
<path d="M19.7844 43.6642C20.16 44.5331 20.3806 45.4868 20.3806 46.4991C20.3806 47.039 20.3152 47.5622 20.2009 48.0684H34.8245C34.7102 47.5622 34.6448 47.039 34.6448 46.4991C34.6448 45.4864 34.8572 44.5331 35.241 43.6642H19.7844Z" fill="#596B86"/>
</svg>
