<svg width="33" height="33" viewBox="0 0 33 33" fill="none" xmlns="http://www.w3.org/2000/svg">
<path d="M24.557 11.3097C23.9634 11.586 23.325 11.7702 22.6516 11.8573C23.3363 11.4303 23.863 10.7494 24.1102 9.94484C23.4696 10.3394 22.7599 10.6291 22.0048 10.7818C21.4018 10.1103 20.5417 9.69379 19.5889 9.69379C17.7584 9.69379 16.275 11.2387 16.275 13.1434C16.275 13.4129 16.3049 13.6755 16.3615 13.9305C13.6079 13.7852 11.1656 12.4102 9.53174 10.3233C9.24467 10.8332 9.08318 11.4303 9.08318 12.0605C9.08318 13.2581 9.66694 14.3122 10.557 14.9335C10.0137 14.9159 9.50233 14.7573 9.05461 14.5027C9.05461 14.5131 9.05461 14.5285 9.05461 14.5431C9.05461 16.2166 10.1972 17.6101 11.7118 17.9274C11.4349 18.007 11.1425 18.0513 10.841 18.0513C10.6269 18.0513 10.4184 18.0257 10.2165 17.9877C10.6382 19.3552 11.8617 20.355 13.3112 20.3844C12.177 21.3081 10.7488 21.8613 9.19546 21.8613C8.92705 21.8613 8.66487 21.8452 8.40552 21.8123C9.87255 22.7882 11.6151 23.3605 13.4854 23.3605C19.5801 23.3605 22.9141 18.1029 22.9141 13.5421C22.9141 13.3927 22.9096 13.2439 22.9028 13.0968C23.5536 12.6143 24.1141 12.0052 24.557 11.3097Z" fill="#00B2FF"/>
<rect x="1.45117" y="1.49652" width="30.0606" height="30.0606" rx="3.5" stroke="#D9D9D9"/>
</svg>
